%TF.GenerationSoftware,KiCad,Pcbnew,9.0.1*%
%TF.CreationDate,2025-06-03T04:36:32-05:00*%
%TF.ProjectId,coco2Keyboard,636f636f-324b-4657-9962-6f6172642e6b,rev?*%
%TF.SameCoordinates,Original*%
%TF.FileFunction,Profile,NP*%
%FSLAX46Y46*%
G04 Gerber Fmt 4.6, Leading zero omitted, Abs format (unit mm)*
G04 Created by KiCad (PCBNEW 9.0.1) date 2025-06-03 04:36:32*
%MOMM*%
%LPD*%
G01*
G04 APERTURE LIST*
%ADD10C,0.150000*%
%TA.AperFunction,Profile*%
%ADD11C,0.050000*%
%TD*%
G04 APERTURE END LIST*
D10*
X222336779Y-94488866D02*
X223098684Y-94488866D01*
X222717731Y-94869819D02*
X222717731Y-94107914D01*
D11*
X-6000000Y-147000000D02*
G75*
G02*
X-7000000Y-146000000I-1J999999D01*
G01*
X-2000000Y-113500000D02*
X-7000000Y-113500000D01*
X308000000Y-57000000D02*
X308000000Y-113500000D01*
X-2000000Y-113500000D02*
G75*
G02*
X-2000000Y-118500000I0J-2500000D01*
G01*
X307000000Y-23500000D02*
G75*
G02*
X308000000Y-24500000I0J-1000000D01*
G01*
X303000000Y-118500000D02*
G75*
G02*
X303000000Y-113500000I0J2500000D01*
G01*
X-7000000Y-57000000D02*
X-7000000Y-113500000D01*
X-7000000Y-24500000D02*
G75*
G02*
X-6000000Y-23500000I999999J1D01*
G01*
X-1500000Y-52000000D02*
G75*
G02*
X-1500000Y-57000000I0J-2500000D01*
G01*
X-7000000Y-118500000D02*
X-7000000Y-146000001D01*
X-2000000Y-118500000D02*
X-7000000Y-118500000D01*
X-6999999Y-52000000D02*
X-7000000Y-24499999D01*
X308000000Y-118500000D02*
X308000000Y-146000000D01*
X-6000000Y-23500000D02*
X306999999Y-23500001D01*
X308000000Y-146000000D02*
G75*
G02*
X307000000Y-147000000I-1000000J0D01*
G01*
X-1500000Y-52000000D02*
X-7000000Y-52000000D01*
X-1500000Y-57000000D02*
X-7000000Y-57000000D01*
X307000000Y-147000000D02*
X-6000000Y-147000000D01*
X303000000Y-52000000D02*
X308000000Y-52000000D01*
X303000000Y-118500000D02*
X308000000Y-118500000D01*
X303000000Y-57000000D02*
G75*
G02*
X303000000Y-52000000I0J2500000D01*
G01*
X303000000Y-113500000D02*
X308000000Y-113500000D01*
X308000000Y-24500000D02*
X308000000Y-52000000D01*
X303000000Y-57000000D02*
X308000000Y-57000000D01*
M02*
