%TF.GenerationSoftware,KiCad,Pcbnew,9.0.1*%
%TF.CreationDate,2025-06-03T04:36:32-05:00*%
%TF.ProjectId,coco2Keyboard,636f636f-324b-4657-9962-6f6172642e6b,rev?*%
%TF.SameCoordinates,Original*%
%TF.FileFunction,Soldermask,Bot*%
%TF.FilePolarity,Negative*%
%FSLAX46Y46*%
G04 Gerber Fmt 4.6, Leading zero omitted, Abs format (unit mm)*
G04 Created by KiCad (PCBNEW 9.0.1) date 2025-06-03 04:36:32*
%MOMM*%
%LPD*%
G01*
G04 APERTURE LIST*
G04 Aperture macros list*
%AMRoundRect*
0 Rectangle with rounded corners*
0 $1 Rounding radius*
0 $2 $3 $4 $5 $6 $7 $8 $9 X,Y pos of 4 corners*
0 Add a 4 corners polygon primitive as box body*
4,1,4,$2,$3,$4,$5,$6,$7,$8,$9,$2,$3,0*
0 Add four circle primitives for the rounded corners*
1,1,$1+$1,$2,$3*
1,1,$1+$1,$4,$5*
1,1,$1+$1,$6,$7*
1,1,$1+$1,$8,$9*
0 Add four rect primitives between the rounded corners*
20,1,$1+$1,$2,$3,$4,$5,0*
20,1,$1+$1,$4,$5,$6,$7,0*
20,1,$1+$1,$6,$7,$8,$9,0*
20,1,$1+$1,$8,$9,$2,$3,0*%
G04 Aperture macros list end*
%ADD10C,1.700000*%
%ADD11C,4.000000*%
%ADD12C,2.200000*%
%ADD13C,3.050000*%
%ADD14C,5.000000*%
%ADD15R,1.700000X1.700000*%
%ADD16RoundRect,0.225000X0.375000X-0.225000X0.375000X0.225000X-0.375000X0.225000X-0.375000X-0.225000X0*%
G04 APERTURE END LIST*
D10*
%TO.C,SW20*%
X69163800Y-92260000D03*
D11*
X74243800Y-92260000D03*
D10*
X79323800Y-92260000D03*
D12*
X76783800Y-87180000D03*
X70433800Y-89720000D03*
%TD*%
D10*
%TO.C,SW44*%
X221563800Y-92260000D03*
D11*
X226643800Y-92260000D03*
D10*
X231723800Y-92260000D03*
D12*
X229183800Y-87180000D03*
X222833800Y-89720000D03*
%TD*%
D10*
%TO.C,SW4*%
X97738800Y-111310000D03*
D11*
X102818800Y-111310000D03*
D10*
X107898800Y-111310000D03*
D12*
X105358800Y-106230000D03*
X99008800Y-108770000D03*
%TD*%
D10*
%TO.C,SW16*%
X197751300Y-73210000D03*
D11*
X202831300Y-73210000D03*
D10*
X207911300Y-73210000D03*
D12*
X205371300Y-68130000D03*
X199021300Y-70670000D03*
%TD*%
D10*
%TO.C,SW30*%
X207276300Y-130360000D03*
D11*
X212356300Y-130360000D03*
D10*
X217436300Y-130360000D03*
D12*
X214896300Y-125280000D03*
X208546300Y-127820000D03*
%TD*%
D10*
%TO.C,SW31*%
X264426300Y-130360000D03*
D11*
X269506300Y-130360000D03*
D10*
X274586300Y-130360000D03*
D12*
X272046300Y-125280000D03*
X265696300Y-127820000D03*
%TD*%
D10*
%TO.C,SW11*%
X164413800Y-92260000D03*
D11*
X169493800Y-92260000D03*
D10*
X174573800Y-92260000D03*
D12*
X172033800Y-87180000D03*
X165683800Y-89720000D03*
%TD*%
D10*
%TO.C,SW7*%
X107263800Y-92260000D03*
D11*
X112343800Y-92260000D03*
D10*
X117423800Y-92260000D03*
D12*
X114883800Y-87180000D03*
X108533800Y-89720000D03*
%TD*%
D10*
%TO.C,SW52*%
X33445000Y-111310000D03*
D11*
X38525000Y-111310000D03*
D10*
X43605000Y-111310000D03*
D12*
X41065000Y-106230000D03*
X34715000Y-108770000D03*
%TD*%
D10*
%TO.C,SW24*%
X64401300Y-73210000D03*
D11*
X69481300Y-73210000D03*
D10*
X74561300Y-73210000D03*
D12*
X72021300Y-68130000D03*
X65671300Y-70670000D03*
%TD*%
D10*
%TO.C,SW26*%
X140601300Y-73210000D03*
D11*
X145681300Y-73210000D03*
D10*
X150761300Y-73210000D03*
D12*
X148221300Y-68130000D03*
X141871300Y-70670000D03*
%TD*%
D10*
%TO.C,SW37*%
X92976300Y-54160000D03*
D11*
X98056300Y-54160000D03*
D10*
X103136300Y-54160000D03*
D12*
X100596300Y-49080000D03*
X94246300Y-51620000D03*
%TD*%
D10*
%TO.C,SW17*%
X216801300Y-73210000D03*
D11*
X221881300Y-73210000D03*
D10*
X226961300Y-73210000D03*
D12*
X224421300Y-68130000D03*
X218071300Y-70670000D03*
%TD*%
D10*
%TO.C,SW22*%
X159651300Y-73210000D03*
D11*
X164731300Y-73210000D03*
D10*
X169811300Y-73210000D03*
D12*
X167271300Y-68130000D03*
X160921300Y-70670000D03*
%TD*%
D10*
%TO.C,SW25*%
X78688800Y-111310000D03*
D11*
X83768800Y-111310000D03*
D10*
X88848800Y-111310000D03*
D12*
X86308800Y-106230000D03*
X79958800Y-108770000D03*
%TD*%
D13*
%TO.C,SW32*%
X93300000Y-123360000D03*
D11*
X93300000Y-138600000D03*
D10*
X138220000Y-130360000D03*
D11*
X143300000Y-130360000D03*
D10*
X148380000Y-130360000D03*
D13*
X193300000Y-123360000D03*
D11*
X193300000Y-138600000D03*
D12*
X145840000Y-125280000D03*
X139490000Y-127820000D03*
%TD*%
D13*
%TO.C,SW49*%
X245700000Y-85260000D03*
D11*
X245700000Y-100500000D03*
D10*
X252520000Y-92260000D03*
D11*
X257600000Y-92260000D03*
D10*
X262680000Y-92260000D03*
D13*
X269500000Y-85260000D03*
D11*
X269500000Y-100500000D03*
D12*
X260140000Y-87180000D03*
X253790000Y-89720000D03*
%TD*%
D10*
%TO.C,SW33*%
X207276300Y-54160000D03*
D11*
X212356300Y-54160000D03*
D10*
X217436300Y-54160000D03*
D12*
X214896300Y-49080000D03*
X208546300Y-51620000D03*
%TD*%
D10*
%TO.C,SW40*%
X150126300Y-54160000D03*
D11*
X155206300Y-54160000D03*
D10*
X160286300Y-54160000D03*
D12*
X157746300Y-49080000D03*
X151396300Y-51620000D03*
%TD*%
D10*
%TO.C,SW6*%
X83451300Y-73210000D03*
D11*
X88531300Y-73210000D03*
D10*
X93611300Y-73210000D03*
D12*
X91071300Y-68130000D03*
X84721300Y-70670000D03*
%TD*%
D14*
%TO.C,Mount3*%
X-1500000Y-131500000D03*
%TD*%
%TO.C,Mount5*%
X302500000Y-82000000D03*
%TD*%
D10*
%TO.C,SW14*%
X173938800Y-111310000D03*
D11*
X179018800Y-111310000D03*
D10*
X184098800Y-111310000D03*
D12*
X181558800Y-106230000D03*
X175208800Y-108770000D03*
%TD*%
D10*
%TO.C,SW28*%
X226326300Y-130360000D03*
D11*
X231406300Y-130360000D03*
D10*
X236486300Y-130360000D03*
D12*
X233946300Y-125280000D03*
X227596300Y-127820000D03*
%TD*%
D15*
%TO.C,J1*%
X129500000Y-33500000D03*
D10*
X132040000Y-33500000D03*
X134580000Y-33500000D03*
X137120000Y-33500000D03*
X139660000Y-33500000D03*
X142200000Y-33500000D03*
X144740000Y-33500000D03*
X147280000Y-33500000D03*
X149820000Y-33500000D03*
X152360000Y-33500000D03*
X154900000Y-33500000D03*
X157440000Y-33500000D03*
X159980000Y-33500000D03*
X162520000Y-33500000D03*
X165060000Y-33500000D03*
X167600000Y-33500000D03*
%TD*%
%TO.C,SW34*%
X35826300Y-54160000D03*
D11*
X40906300Y-54160000D03*
D10*
X45986300Y-54160000D03*
D12*
X43446300Y-49080000D03*
X37096300Y-51620000D03*
%TD*%
D14*
%TO.C,Mount6*%
X302500000Y-131500000D03*
%TD*%
D10*
%TO.C,SW18*%
X45351300Y-73210000D03*
D11*
X50431300Y-73210000D03*
D10*
X55511300Y-73210000D03*
D12*
X52971300Y-68130000D03*
X46621300Y-70670000D03*
%TD*%
D10*
%TO.C,SW2*%
X50113800Y-92260000D03*
D11*
X55193800Y-92260000D03*
D10*
X60273800Y-92260000D03*
D12*
X57733800Y-87180000D03*
X51383800Y-89720000D03*
%TD*%
D10*
%TO.C,SW8*%
X126313800Y-92260000D03*
D11*
X131393800Y-92260000D03*
D10*
X136473800Y-92260000D03*
D12*
X133933800Y-87180000D03*
X127583800Y-89720000D03*
%TD*%
D10*
%TO.C,SW27*%
X59638800Y-111310000D03*
D11*
X64718800Y-111310000D03*
D10*
X69798800Y-111310000D03*
D12*
X67258800Y-106230000D03*
X60908800Y-108770000D03*
%TD*%
D10*
%TO.C,SW13*%
X202513800Y-92260000D03*
D11*
X207593800Y-92260000D03*
D10*
X212673800Y-92260000D03*
D12*
X210133800Y-87180000D03*
X203783800Y-89720000D03*
%TD*%
D10*
%TO.C,SW3*%
X135838800Y-111310000D03*
D11*
X140918800Y-111310000D03*
D10*
X145998800Y-111310000D03*
D12*
X143458800Y-106230000D03*
X137108800Y-108770000D03*
%TD*%
D10*
%TO.C,SW45*%
X192988800Y-111310000D03*
D11*
X198068800Y-111310000D03*
D10*
X203148800Y-111310000D03*
D12*
X200608800Y-106230000D03*
X194258800Y-108770000D03*
%TD*%
D10*
%TO.C,SW41*%
X169176300Y-54160000D03*
D11*
X174256300Y-54160000D03*
D10*
X179336300Y-54160000D03*
D12*
X176796300Y-49080000D03*
X170446300Y-51620000D03*
%TD*%
D10*
%TO.C,SW29*%
X245376300Y-130360000D03*
D11*
X250456300Y-130360000D03*
D10*
X255536300Y-130360000D03*
D12*
X252996300Y-125280000D03*
X246646300Y-127820000D03*
%TD*%
D14*
%TO.C,Mount1*%
X-1500000Y-39000000D03*
%TD*%
%TO.C,Mount4*%
X302500000Y-39000000D03*
%TD*%
D10*
%TO.C,SW19*%
X102501300Y-73210000D03*
D11*
X107581300Y-73210000D03*
D10*
X112661300Y-73210000D03*
D12*
X110121300Y-68130000D03*
X103771300Y-70670000D03*
%TD*%
D10*
%TO.C,SW50*%
X264426300Y-54160000D03*
D11*
X269506300Y-54160000D03*
D10*
X274586300Y-54160000D03*
D12*
X272046300Y-49080000D03*
X265696300Y-51620000D03*
%TD*%
D14*
%TO.C,Mount2*%
X-1500000Y-82000000D03*
%TD*%
D10*
%TO.C,SW42*%
X188226300Y-54160000D03*
D11*
X193306300Y-54160000D03*
D10*
X198386300Y-54160000D03*
D12*
X195846300Y-49080000D03*
X189496300Y-51620000D03*
%TD*%
D10*
%TO.C,SW43*%
X226326300Y-54160000D03*
D11*
X231406300Y-54160000D03*
D10*
X236486300Y-54160000D03*
D12*
X233946300Y-49080000D03*
X227596300Y-51620000D03*
%TD*%
D10*
%TO.C,SW48*%
X231088800Y-111310000D03*
D11*
X236168800Y-111310000D03*
D10*
X241248800Y-111310000D03*
D12*
X238708800Y-106230000D03*
X232358800Y-108770000D03*
%TD*%
D10*
%TO.C,SW51*%
X16776300Y-54160000D03*
D11*
X21856300Y-54160000D03*
D10*
X26936300Y-54160000D03*
D12*
X24396300Y-49080000D03*
X18046300Y-51620000D03*
%TD*%
D10*
%TO.C,SW35*%
X54876300Y-54160000D03*
D11*
X59956300Y-54160000D03*
D10*
X65036300Y-54160000D03*
D12*
X62496300Y-49080000D03*
X56146300Y-51620000D03*
%TD*%
D10*
%TO.C,SW36*%
X73926300Y-54160000D03*
D11*
X79006300Y-54160000D03*
D10*
X84086300Y-54160000D03*
D12*
X81546300Y-49080000D03*
X75196300Y-51620000D03*
%TD*%
D10*
%TO.C,SW12*%
X183463800Y-92260000D03*
D11*
X188543800Y-92260000D03*
D10*
X193623800Y-92260000D03*
D12*
X191083800Y-87180000D03*
X184733800Y-89720000D03*
%TD*%
D10*
%TO.C,SW39*%
X131076300Y-54160000D03*
D11*
X136156300Y-54160000D03*
D10*
X141236300Y-54160000D03*
D12*
X138696300Y-49080000D03*
X132346300Y-51620000D03*
%TD*%
D10*
%TO.C,SW9*%
X145363800Y-92260000D03*
D11*
X150443800Y-92260000D03*
D10*
X155523800Y-92260000D03*
D12*
X152983800Y-87180000D03*
X146633800Y-89720000D03*
%TD*%
D10*
%TO.C,SW1*%
X235851300Y-73210000D03*
D11*
X240931300Y-73210000D03*
D10*
X246011300Y-73210000D03*
D12*
X243471300Y-68130000D03*
X237121300Y-70670000D03*
%TD*%
D10*
%TO.C,SW15*%
X154888800Y-111310000D03*
D11*
X159968800Y-111310000D03*
D10*
X165048800Y-111310000D03*
D12*
X162508800Y-106230000D03*
X156158800Y-108770000D03*
%TD*%
D10*
%TO.C,SW53*%
X257282500Y-111310000D03*
D11*
X262362500Y-111310000D03*
D10*
X267442500Y-111310000D03*
D12*
X264902500Y-106230000D03*
X258552500Y-108770000D03*
%TD*%
D10*
%TO.C,SW47*%
X212038800Y-111310000D03*
D11*
X217118800Y-111310000D03*
D10*
X222198800Y-111310000D03*
D12*
X219658800Y-106230000D03*
X213308800Y-108770000D03*
%TD*%
D10*
%TO.C,SW10*%
X178701300Y-73210000D03*
D11*
X183781300Y-73210000D03*
D10*
X188861300Y-73210000D03*
D12*
X186321300Y-68130000D03*
X179971300Y-70670000D03*
%TD*%
D10*
%TO.C,SW46*%
X245376300Y-54160000D03*
D11*
X250456300Y-54160000D03*
D10*
X255536300Y-54160000D03*
D12*
X252996300Y-49080000D03*
X246646300Y-51620000D03*
%TD*%
D10*
%TO.C,SW5*%
X88213800Y-92260000D03*
D11*
X93293800Y-92260000D03*
D10*
X98373800Y-92260000D03*
D12*
X95833800Y-87180000D03*
X89483800Y-89720000D03*
%TD*%
D10*
%TO.C,SW38*%
X112026300Y-54160000D03*
D11*
X117106300Y-54160000D03*
D10*
X122186300Y-54160000D03*
D12*
X119646300Y-49080000D03*
X113296300Y-51620000D03*
%TD*%
D10*
%TO.C,SW23*%
X116788800Y-111310000D03*
D11*
X121868800Y-111310000D03*
D10*
X126948800Y-111310000D03*
D12*
X124408800Y-106230000D03*
X118058800Y-108770000D03*
%TD*%
D10*
%TO.C,SW21*%
X121551300Y-73210000D03*
D11*
X126631300Y-73210000D03*
D10*
X131711300Y-73210000D03*
D12*
X129171300Y-68130000D03*
X122821300Y-70670000D03*
%TD*%
D16*
%TO.C,D30*%
X258076300Y-129960000D03*
X258076300Y-126660000D03*
%TD*%
%TO.C,D31*%
X219976300Y-129960000D03*
X219976300Y-126660000D03*
%TD*%
%TO.C,D41*%
X162826300Y-53760000D03*
X162826300Y-50460000D03*
%TD*%
%TO.C,D34*%
X219976300Y-53760000D03*
X219976300Y-50460000D03*
%TD*%
%TO.C,D6*%
X96151300Y-72810000D03*
X96151300Y-69510000D03*
%TD*%
%TO.C,D12*%
X196163800Y-91860000D03*
X196163800Y-88560000D03*
%TD*%
%TO.C,D43*%
X200926300Y-53760000D03*
X200926300Y-50460000D03*
%TD*%
%TO.C,D32*%
X277126300Y-129960000D03*
X277126300Y-126660000D03*
%TD*%
%TO.C,D45*%
X234263800Y-91860000D03*
X234263800Y-88560000D03*
%TD*%
%TO.C,D46*%
X205688800Y-110910000D03*
X205688800Y-107610000D03*
%TD*%
%TO.C,D10*%
X191401300Y-72810000D03*
X191401300Y-69510000D03*
%TD*%
%TO.C,D17*%
X229501300Y-72810000D03*
X229501300Y-69510000D03*
%TD*%
%TO.C,D2*%
X62813800Y-91860000D03*
X62813800Y-88560000D03*
%TD*%
%TO.C,D21*%
X134251300Y-72810000D03*
X134251300Y-69510000D03*
%TD*%
%TO.C,D4*%
X110438800Y-110910000D03*
X110438800Y-107610000D03*
%TD*%
%TO.C,D13*%
X215213800Y-91860000D03*
X215213800Y-88560000D03*
%TD*%
%TO.C,D3*%
X148538800Y-110910000D03*
X148538800Y-107610000D03*
%TD*%
%TO.C,D19*%
X115201300Y-72810000D03*
X115201300Y-69510000D03*
%TD*%
%TO.C,D11*%
X177113800Y-91860000D03*
X177113800Y-88560000D03*
%TD*%
%TO.C,D22*%
X172351300Y-72810000D03*
X172351300Y-69510000D03*
%TD*%
%TO.C,D16*%
X210451300Y-72810000D03*
X210451300Y-69510000D03*
%TD*%
%TO.C,D42*%
X181876300Y-53760000D03*
X181876300Y-50460000D03*
%TD*%
%TO.C,D53*%
X46145000Y-110910000D03*
X46145000Y-107610000D03*
%TD*%
%TO.C,D39*%
X124726300Y-53760000D03*
X124726300Y-50460000D03*
%TD*%
%TO.C,D47*%
X258076300Y-53760000D03*
X258076300Y-50460000D03*
%TD*%
%TO.C,D25*%
X91388800Y-110910000D03*
X91388800Y-107610000D03*
%TD*%
%TO.C,D29*%
X239026300Y-129960000D03*
X239026300Y-126660000D03*
%TD*%
%TO.C,D1*%
X248551300Y-72810000D03*
X248551300Y-69510000D03*
%TD*%
%TO.C,D23*%
X129488800Y-110910000D03*
X129488800Y-107610000D03*
%TD*%
%TO.C,D33*%
X150920000Y-129960000D03*
X150920000Y-126660000D03*
%TD*%
%TO.C,D8*%
X139013800Y-91860000D03*
X139013800Y-88560000D03*
%TD*%
%TO.C,D35*%
X48526300Y-53760000D03*
X48526300Y-50460000D03*
%TD*%
%TO.C,D48*%
X224738800Y-110910000D03*
X224738800Y-107610000D03*
%TD*%
%TO.C,D9*%
X158063800Y-91860000D03*
X158063800Y-88560000D03*
%TD*%
%TO.C,D38*%
X105676300Y-53760000D03*
X105676300Y-50460000D03*
%TD*%
%TO.C,D52*%
X29476300Y-53760000D03*
X29476300Y-50460000D03*
%TD*%
%TO.C,D20*%
X81863800Y-91860000D03*
X81863800Y-88560000D03*
%TD*%
%TO.C,D28*%
X72338800Y-110910000D03*
X72338800Y-107610000D03*
%TD*%
%TO.C,D40*%
X143776300Y-53760000D03*
X143776300Y-50460000D03*
%TD*%
%TO.C,D27*%
X153301300Y-72810000D03*
X153301300Y-69510000D03*
%TD*%
%TO.C,D50*%
X265220000Y-91860000D03*
X265220000Y-88560000D03*
%TD*%
%TO.C,D51*%
X277126300Y-53760000D03*
X277126300Y-50460000D03*
%TD*%
%TO.C,D7*%
X119963800Y-91860000D03*
X119963800Y-88560000D03*
%TD*%
%TO.C,D15*%
X167588800Y-110910000D03*
X167588800Y-107610000D03*
%TD*%
%TO.C,D14*%
X186638800Y-110910000D03*
X186638800Y-107610000D03*
%TD*%
%TO.C,D24*%
X77101300Y-72810000D03*
X77101300Y-69510000D03*
%TD*%
%TO.C,D5*%
X100913800Y-91860000D03*
X100913800Y-88560000D03*
%TD*%
%TO.C,D36*%
X67576300Y-53760000D03*
X67576300Y-50460000D03*
%TD*%
%TO.C,D49*%
X243788800Y-110910000D03*
X243788800Y-107610000D03*
%TD*%
%TO.C,D54*%
X269982500Y-110910000D03*
X269982500Y-107610000D03*
%TD*%
%TO.C,D44*%
X239026300Y-53760000D03*
X239026300Y-50460000D03*
%TD*%
%TO.C,D18*%
X58051300Y-72810000D03*
X58051300Y-69510000D03*
%TD*%
%TO.C,D37*%
X86626300Y-53760000D03*
X86626300Y-50460000D03*
%TD*%
M02*
