M48
; DRILL file {KiCad 9.0.1} date 2025-06-03T04:36:36-0500
; FORMAT={-:-/ absolute / metric / decimal}
; #@! TF.CreationDate,2025-06-03T04:36:36-05:00
; #@! TF.GenerationSoftware,Kicad,Pcbnew,9.0.1
; #@! TF.FileFunction,NonPlated,1,2,NPTH
FMAT,2
METRIC
; #@! TA.AperFunction,NonPlated,NPTH,ComponentDrill
T1C1.700
; #@! TA.AperFunction,NonPlated,NPTH,ComponentDrill
T2C3.050
; #@! TA.AperFunction,NonPlated,NPTH,ComponentDrill
T3C4.000
; #@! TA.AperFunction,NonPlated,NPTH,ComponentDrill
T4C5.000
%
G90
G05
T1
X16.776Y-54.16
X26.936Y-54.16
X33.445Y-111.31
X35.826Y-54.16
X43.605Y-111.31
X45.351Y-73.21
X45.986Y-54.16
X50.114Y-92.26
X54.876Y-54.16
X55.511Y-73.21
X59.639Y-111.31
X60.274Y-92.26
X64.401Y-73.21
X65.036Y-54.16
X69.164Y-92.26
X69.799Y-111.31
X73.926Y-54.16
X74.561Y-73.21
X78.689Y-111.31
X79.324Y-92.26
X83.451Y-73.21
X84.086Y-54.16
X88.214Y-92.26
X88.849Y-111.31
X92.976Y-54.16
X93.611Y-73.21
X97.739Y-111.31
X98.374Y-92.26
X102.501Y-73.21
X103.136Y-54.16
X107.264Y-92.26
X107.899Y-111.31
X112.026Y-54.16
X112.661Y-73.21
X116.789Y-111.31
X117.424Y-92.26
X121.551Y-73.21
X122.186Y-54.16
X126.314Y-92.26
X126.949Y-111.31
X131.076Y-54.16
X131.711Y-73.21
X135.839Y-111.31
X136.474Y-92.26
X138.22Y-130.36
X140.601Y-73.21
X141.236Y-54.16
X145.364Y-92.26
X145.999Y-111.31
X148.38Y-130.36
X150.126Y-54.16
X150.761Y-73.21
X154.889Y-111.31
X155.524Y-92.26
X159.651Y-73.21
X160.286Y-54.16
X164.414Y-92.26
X165.049Y-111.31
X169.176Y-54.16
X169.811Y-73.21
X173.939Y-111.31
X174.574Y-92.26
X178.701Y-73.21
X179.336Y-54.16
X183.464Y-92.26
X184.099Y-111.31
X188.226Y-54.16
X188.861Y-73.21
X192.989Y-111.31
X193.624Y-92.26
X197.751Y-73.21
X198.386Y-54.16
X202.514Y-92.26
X203.149Y-111.31
X207.276Y-54.16
X207.276Y-130.36
X207.911Y-73.21
X212.039Y-111.31
X212.674Y-92.26
X216.801Y-73.21
X217.436Y-54.16
X217.436Y-130.36
X221.564Y-92.26
X222.199Y-111.31
X226.326Y-54.16
X226.326Y-130.36
X226.961Y-73.21
X231.089Y-111.31
X231.724Y-92.26
X235.851Y-73.21
X236.486Y-54.16
X236.486Y-130.36
X241.249Y-111.31
X245.376Y-54.16
X245.376Y-130.36
X246.011Y-73.21
X252.52Y-92.26
X255.536Y-54.16
X255.536Y-130.36
X257.282Y-111.31
X262.68Y-92.26
X264.426Y-54.16
X264.426Y-130.36
X267.442Y-111.31
X274.586Y-54.16
X274.586Y-130.36
T2
X93.3Y-123.36
X193.3Y-123.36
X245.7Y-85.26
X269.5Y-85.26
T3
X21.856Y-54.16
X38.525Y-111.31
X40.906Y-54.16
X50.431Y-73.21
X55.194Y-92.26
X59.956Y-54.16
X64.719Y-111.31
X69.481Y-73.21
X74.244Y-92.26
X79.006Y-54.16
X83.769Y-111.31
X88.531Y-73.21
X93.294Y-92.26
X93.3Y-138.6
X98.056Y-54.16
X102.819Y-111.31
X107.581Y-73.21
X112.344Y-92.26
X117.106Y-54.16
X121.869Y-111.31
X126.631Y-73.21
X131.394Y-92.26
X136.156Y-54.16
X140.919Y-111.31
X143.3Y-130.36
X145.681Y-73.21
X150.444Y-92.26
X155.206Y-54.16
X159.969Y-111.31
X164.731Y-73.21
X169.494Y-92.26
X174.256Y-54.16
X179.019Y-111.31
X183.781Y-73.21
X188.544Y-92.26
X193.3Y-138.6
X193.306Y-54.16
X198.069Y-111.31
X202.831Y-73.21
X207.594Y-92.26
X212.356Y-54.16
X212.356Y-130.36
X217.119Y-111.31
X221.881Y-73.21
X226.644Y-92.26
X231.406Y-54.16
X231.406Y-130.36
X236.169Y-111.31
X240.931Y-73.21
X245.7Y-100.5
X250.456Y-54.16
X250.456Y-130.36
X257.6Y-92.26
X262.363Y-111.31
X269.5Y-100.5
X269.506Y-54.16
X269.506Y-130.36
T4
X-1.5Y-39.0
X-1.5Y-82.0
X-1.5Y-131.5
X302.5Y-39.0
X302.5Y-82.0
X302.5Y-131.5
M30
