%TF.GenerationSoftware,KiCad,Pcbnew,9.0.1*%
%TF.CreationDate,2025-06-03T04:36:32-05:00*%
%TF.ProjectId,coco2Keyboard,636f636f-324b-4657-9962-6f6172642e6b,rev?*%
%TF.SameCoordinates,Original*%
%TF.FileFunction,Copper,L1,Top*%
%TF.FilePolarity,Positive*%
%FSLAX46Y46*%
G04 Gerber Fmt 4.6, Leading zero omitted, Abs format (unit mm)*
G04 Created by KiCad (PCBNEW 9.0.1) date 2025-06-03 04:36:32*
%MOMM*%
%LPD*%
G01*
G04 APERTURE LIST*
%TA.AperFunction,ComponentPad*%
%ADD10C,2.200000*%
%TD*%
%TA.AperFunction,ComponentPad*%
%ADD11R,1.700000X1.700000*%
%TD*%
%TA.AperFunction,ComponentPad*%
%ADD12C,1.700000*%
%TD*%
%TA.AperFunction,ViaPad*%
%ADD13C,0.600000*%
%TD*%
%TA.AperFunction,Conductor*%
%ADD14C,0.200000*%
%TD*%
G04 APERTURE END LIST*
D10*
%TO.P,SW20,1,1*%
%TO.N,COL3*%
X76783800Y-87180000D03*
%TO.P,SW20,2,2*%
%TO.N,Net-(D20-K)*%
X70433800Y-89720000D03*
%TD*%
%TO.P,SW44,1,1*%
%TO.N,COL3*%
X229183800Y-87180000D03*
%TO.P,SW44,2,2*%
%TO.N,Net-(D45-K)*%
X222833800Y-89720000D03*
%TD*%
%TO.P,SW4,1,1*%
%TO.N,COL3*%
X105358800Y-106230000D03*
%TO.P,SW4,2,2*%
%TO.N,Net-(D4-K)*%
X99008800Y-108770000D03*
%TD*%
%TO.P,SW16,1,1*%
%TO.N,COL7*%
X205371300Y-68130000D03*
%TO.P,SW16,2,2*%
%TO.N,Net-(D16-K)*%
X199021300Y-70670000D03*
%TD*%
%TO.P,SW30,1,1*%
%TO.N,COL5*%
X214896300Y-125280000D03*
%TO.P,SW30,2,2*%
%TO.N,Net-(D31-K)*%
X208546300Y-127820000D03*
%TD*%
%TO.P,SW31,1,1*%
%TO.N,COL6*%
X272046300Y-125280000D03*
%TO.P,SW31,2,2*%
%TO.N,Net-(D32-K)*%
X265696300Y-127820000D03*
%TD*%
%TO.P,SW11,1,1*%
%TO.N,COL2*%
X172033800Y-87180000D03*
%TO.P,SW11,2,2*%
%TO.N,Net-(D11-K)*%
X165683800Y-89720000D03*
%TD*%
%TO.P,SW7,1,1*%
%TO.N,COL6*%
X114883800Y-87180000D03*
%TO.P,SW7,2,2*%
%TO.N,Net-(D7-K)*%
X108533800Y-89720000D03*
%TD*%
%TO.P,SW52,1,1*%
%TO.N,COL7*%
X41065000Y-106230000D03*
%TO.P,SW52,2,2*%
%TO.N,Net-(D53-K)*%
X34715000Y-108770000D03*
%TD*%
%TO.P,SW24,1,1*%
%TO.N,COL7*%
X72021300Y-68130000D03*
%TO.P,SW24,2,2*%
%TO.N,Net-(D24-K)*%
X65671300Y-70670000D03*
%TD*%
%TO.P,SW26,1,1*%
%TO.N,COL1*%
X148221300Y-68130000D03*
%TO.P,SW26,2,2*%
%TO.N,Net-(D27-K)*%
X141871300Y-70670000D03*
%TD*%
%TO.P,SW37,1,1*%
%TO.N,COL4*%
X100596300Y-49080000D03*
%TO.P,SW37,2,2*%
%TO.N,Net-(D38-K)*%
X94246300Y-51620000D03*
%TD*%
%TO.P,SW17,1,1*%
%TO.N,COL0*%
X224421300Y-68130000D03*
%TO.P,SW17,2,2*%
%TO.N,Net-(D17-K)*%
X218071300Y-70670000D03*
%TD*%
%TO.P,SW22,1,1*%
%TO.N,COL5*%
X167271300Y-68130000D03*
%TO.P,SW22,2,2*%
%TO.N,Net-(D22-K)*%
X160921300Y-70670000D03*
%TD*%
%TO.P,SW25,1,1*%
%TO.N,COL0*%
X86308800Y-106230000D03*
%TO.P,SW25,2,2*%
%TO.N,Net-(D25-K)*%
X79958800Y-108770000D03*
%TD*%
%TO.P,SW32,1,1*%
%TO.N,COL7*%
X145840000Y-125280000D03*
%TO.P,SW32,2,2*%
%TO.N,Net-(D33-K)*%
X139490000Y-127820000D03*
%TD*%
%TO.P,SW49,1,1*%
%TO.N,COL0*%
X260140000Y-87180000D03*
%TO.P,SW49,2,2*%
%TO.N,Net-(D50-K)*%
X253790000Y-89720000D03*
%TD*%
%TO.P,SW33,1,1*%
%TO.N,COL0*%
X214896300Y-49080000D03*
%TO.P,SW33,2,2*%
%TO.N,Net-(D34-K)*%
X208546300Y-51620000D03*
%TD*%
%TO.P,SW40,1,1*%
%TO.N,COL7*%
X157746300Y-49080000D03*
%TO.P,SW40,2,2*%
%TO.N,Net-(D41-K)*%
X151396300Y-51620000D03*
%TD*%
%TO.P,SW6,1,1*%
%TO.N,COL5*%
X91071300Y-68130000D03*
%TO.P,SW6,2,2*%
%TO.N,Net-(D6-K)*%
X84721300Y-70670000D03*
%TD*%
%TO.P,SW14,1,1*%
%TO.N,COL5*%
X181558800Y-106230000D03*
%TO.P,SW14,2,2*%
%TO.N,Net-(D14-K)*%
X175208800Y-108770000D03*
%TD*%
%TO.P,SW28,1,1*%
%TO.N,COL3*%
X233946300Y-125280000D03*
%TO.P,SW28,2,2*%
%TO.N,Net-(D29-K)*%
X227596300Y-127820000D03*
%TD*%
D11*
%TO.P,J1,1,Pin_1*%
%TO.N,ROW0*%
X129500000Y-33500000D03*
D12*
%TO.P,J1,2,Pin_2*%
%TO.N,ROW1*%
X132040000Y-33500000D03*
%TO.P,J1,3,Pin_3*%
%TO.N,unconnected-(J1-Pin_3-Pad3)*%
X134580000Y-33500000D03*
%TO.P,J1,4,Pin_4*%
%TO.N,ROW2*%
X137120000Y-33500000D03*
%TO.P,J1,5,Pin_5*%
%TO.N,ROW3*%
X139660000Y-33500000D03*
%TO.P,J1,6,Pin_6*%
%TO.N,ROW4*%
X142200000Y-33500000D03*
%TO.P,J1,7,Pin_7*%
%TO.N,ROW5*%
X144740000Y-33500000D03*
%TO.P,J1,8,Pin_8*%
%TO.N,ROW6*%
X147280000Y-33500000D03*
%TO.P,J1,9,Pin_9*%
%TO.N,COL0*%
X149820000Y-33500000D03*
%TO.P,J1,10,Pin_10*%
%TO.N,COL1*%
X152360000Y-33500000D03*
%TO.P,J1,11,Pin_11*%
%TO.N,COL2*%
X154900000Y-33500000D03*
%TO.P,J1,12,Pin_12*%
%TO.N,COL3*%
X157440000Y-33500000D03*
%TO.P,J1,13,Pin_13*%
%TO.N,COL4*%
X159980000Y-33500000D03*
%TO.P,J1,14,Pin_14*%
%TO.N,COL5*%
X162520000Y-33500000D03*
%TO.P,J1,15,Pin_15*%
%TO.N,COL6*%
X165060000Y-33500000D03*
%TO.P,J1,16,Pin_16*%
%TO.N,COL7*%
X167600000Y-33500000D03*
%TD*%
D10*
%TO.P,SW34,1,1*%
%TO.N,COL1*%
X43446300Y-49080000D03*
%TO.P,SW34,2,2*%
%TO.N,Net-(D35-K)*%
X37096300Y-51620000D03*
%TD*%
%TO.P,SW18,1,1*%
%TO.N,COL1*%
X52971300Y-68130000D03*
%TO.P,SW18,2,2*%
%TO.N,Net-(D18-K)*%
X46621300Y-70670000D03*
%TD*%
%TO.P,SW2,1,1*%
%TO.N,COL1*%
X57733800Y-87180000D03*
%TO.P,SW2,2,2*%
%TO.N,Net-(D2-K)*%
X51383800Y-89720000D03*
%TD*%
%TO.P,SW8,1,1*%
%TO.N,COL7*%
X133933800Y-87180000D03*
%TO.P,SW8,2,2*%
%TO.N,Net-(D8-K)*%
X127583800Y-89720000D03*
%TD*%
%TO.P,SW27,1,1*%
%TO.N,COL2*%
X67258800Y-106230000D03*
%TO.P,SW27,2,2*%
%TO.N,Net-(D28-K)*%
X60908800Y-108770000D03*
%TD*%
%TO.P,SW13,1,1*%
%TO.N,COL4*%
X210133800Y-87180000D03*
%TO.P,SW13,2,2*%
%TO.N,Net-(D13-K)*%
X203783800Y-89720000D03*
%TD*%
%TO.P,SW3,1,1*%
%TO.N,COL2*%
X143458800Y-106230000D03*
%TO.P,SW3,2,2*%
%TO.N,Net-(D3-K)*%
X137108800Y-108770000D03*
%TD*%
%TO.P,SW45,1,1*%
%TO.N,COL4*%
X200608800Y-106230000D03*
%TO.P,SW45,2,2*%
%TO.N,Net-(D46-K)*%
X194258800Y-108770000D03*
%TD*%
%TO.P,SW41,1,1*%
%TO.N,COL0*%
X176796300Y-49080000D03*
%TO.P,SW41,2,2*%
%TO.N,Net-(D42-K)*%
X170446300Y-51620000D03*
%TD*%
%TO.P,SW29,1,1*%
%TO.N,COL4*%
X252996300Y-125280000D03*
%TO.P,SW29,2,2*%
%TO.N,Net-(D30-K)*%
X246646300Y-127820000D03*
%TD*%
%TO.P,SW19,1,1*%
%TO.N,COL2*%
X110121300Y-68130000D03*
%TO.P,SW19,2,2*%
%TO.N,Net-(D19-K)*%
X103771300Y-70670000D03*
%TD*%
%TO.P,SW50,1,1*%
%TO.N,COL1*%
X272046300Y-49080000D03*
%TO.P,SW50,2,2*%
%TO.N,Net-(D51-K)*%
X265696300Y-51620000D03*
%TD*%
%TO.P,SW42,1,1*%
%TO.N,COL1*%
X195846300Y-49080000D03*
%TO.P,SW42,2,2*%
%TO.N,Net-(D43-K)*%
X189496300Y-51620000D03*
%TD*%
%TO.P,SW43,1,1*%
%TO.N,COL2*%
X233946300Y-49080000D03*
%TO.P,SW43,2,2*%
%TO.N,Net-(D44-K)*%
X227596300Y-51620000D03*
%TD*%
%TO.P,SW48,1,1*%
%TO.N,COL7*%
X238708800Y-106230000D03*
%TO.P,SW48,2,2*%
%TO.N,Net-(D49-K)*%
X232358800Y-108770000D03*
%TD*%
%TO.P,SW51,1,1*%
%TO.N,COL2*%
X24396300Y-49080000D03*
%TO.P,SW51,2,2*%
%TO.N,Net-(D52-K)*%
X18046300Y-51620000D03*
%TD*%
%TO.P,SW35,1,1*%
%TO.N,COL2*%
X62496300Y-49080000D03*
%TO.P,SW35,2,2*%
%TO.N,Net-(D36-K)*%
X56146300Y-51620000D03*
%TD*%
%TO.P,SW36,1,1*%
%TO.N,COL3*%
X81546300Y-49080000D03*
%TO.P,SW36,2,2*%
%TO.N,Net-(D37-K)*%
X75196300Y-51620000D03*
%TD*%
%TO.P,SW12,1,1*%
%TO.N,COL3*%
X191083800Y-87180000D03*
%TO.P,SW12,2,2*%
%TO.N,Net-(D12-K)*%
X184733800Y-89720000D03*
%TD*%
%TO.P,SW39,1,1*%
%TO.N,COL6*%
X138696300Y-49080000D03*
%TO.P,SW39,2,2*%
%TO.N,Net-(D40-K)*%
X132346300Y-51620000D03*
%TD*%
%TO.P,SW9,1,1*%
%TO.N,COL0*%
X152983800Y-87180000D03*
%TO.P,SW9,2,2*%
%TO.N,Net-(D9-K)*%
X146633800Y-89720000D03*
%TD*%
%TO.P,SW1,1,1*%
%TO.N,COL0*%
X243471300Y-68130000D03*
%TO.P,SW1,2,2*%
%TO.N,Net-(D1-K)*%
X237121300Y-70670000D03*
%TD*%
%TO.P,SW15,1,1*%
%TO.N,COL6*%
X162508800Y-106230000D03*
%TO.P,SW15,2,2*%
%TO.N,Net-(D15-K)*%
X156158800Y-108770000D03*
%TD*%
%TO.P,SW53,1,1*%
%TO.N,COL7*%
X264902500Y-106230000D03*
%TO.P,SW53,2,2*%
%TO.N,Net-(D54-K)*%
X258552500Y-108770000D03*
%TD*%
%TO.P,SW47,1,1*%
%TO.N,COL6*%
X219658800Y-106230000D03*
%TO.P,SW47,2,2*%
%TO.N,Net-(D48-K)*%
X213308800Y-108770000D03*
%TD*%
%TO.P,SW10,1,1*%
%TO.N,COL1*%
X186321300Y-68130000D03*
%TO.P,SW10,2,2*%
%TO.N,Net-(D10-K)*%
X179971300Y-70670000D03*
%TD*%
%TO.P,SW46,1,1*%
%TO.N,COL5*%
X252996300Y-49080000D03*
%TO.P,SW46,2,2*%
%TO.N,Net-(D47-K)*%
X246646300Y-51620000D03*
%TD*%
%TO.P,SW5,1,1*%
%TO.N,COL4*%
X95833800Y-87180000D03*
%TO.P,SW5,2,2*%
%TO.N,Net-(D5-K)*%
X89483800Y-89720000D03*
%TD*%
%TO.P,SW38,1,1*%
%TO.N,COL5*%
X119646300Y-49080000D03*
%TO.P,SW38,2,2*%
%TO.N,Net-(D39-K)*%
X113296300Y-51620000D03*
%TD*%
%TO.P,SW23,1,1*%
%TO.N,COL6*%
X124408800Y-106230000D03*
%TO.P,SW23,2,2*%
%TO.N,Net-(D23-K)*%
X118058800Y-108770000D03*
%TD*%
%TO.P,SW21,1,1*%
%TO.N,COL4*%
X129171300Y-68130000D03*
%TO.P,SW21,2,2*%
%TO.N,Net-(D21-K)*%
X122821300Y-70670000D03*
%TD*%
D13*
%TO.N,ROW0*%
X140093200Y-83728900D03*
X124910000Y-83413700D03*
X184573600Y-81118000D03*
X247662400Y-83284100D03*
X63431300Y-83776000D03*
X98295000Y-83605300D03*
X140075200Y-37837700D03*
X180939000Y-83512600D03*
%TO.N,Net-(D5-K)*%
X100692300Y-93482200D03*
%TO.N,ROW1*%
X164183400Y-37437500D03*
%TO.N,Net-(D9-K)*%
X158086800Y-90080900D03*
%TO.N,ROW2*%
X86434000Y-103817200D03*
X229332100Y-75070100D03*
X122130000Y-104987800D03*
X172269000Y-65427400D03*
X118708900Y-66110200D03*
X134146000Y-66104200D03*
X172591900Y-71847500D03*
%TO.N,ROW3*%
X146040400Y-127066800D03*
X211459600Y-125931400D03*
X140549400Y-57246900D03*
X143099100Y-57303400D03*
X96025500Y-123816400D03*
%TO.N,Net-(D27-K)*%
X154347100Y-71126900D03*
%TO.N,ROW4*%
X220380400Y-39596500D03*
X153156500Y-47652000D03*
X164067900Y-35824400D03*
X143066800Y-48312900D03*
%TO.N,Net-(D40-K)*%
X143241900Y-51795300D03*
%TO.N,ROW5*%
X171012700Y-39596500D03*
X202538800Y-44546200D03*
X145885700Y-39753900D03*
X238222000Y-44546200D03*
%TO.N,ROW6*%
X30070000Y-36651200D03*
X273905200Y-36651200D03*
%TO.N,COL0*%
X101617000Y-85866000D03*
X144450000Y-41894800D03*
X147319000Y-51280000D03*
X146853000Y-41550100D03*
%TO.N,COL1*%
X195236000Y-45178000D03*
X153624000Y-65053100D03*
X147576000Y-43191100D03*
%TO.N,COL2*%
X168444000Y-46164900D03*
X149014000Y-98502500D03*
X233396000Y-46176200D03*
X151377000Y-41945500D03*
X61275100Y-43540800D03*
X109700000Y-46802100D03*
%TO.N,COL3*%
X128276000Y-46156300D03*
X101735000Y-93004000D03*
X219670000Y-85720100D03*
X82099800Y-57259800D03*
X230474000Y-107213000D03*
X180161000Y-85866000D03*
X223356000Y-107213000D03*
X138102000Y-34577600D03*
%TO.N,COL4*%
X239889000Y-97722000D03*
X186545000Y-71281400D03*
X193125000Y-86625400D03*
X158186000Y-40180500D03*
%TO.N,COL5*%
X165979000Y-41061200D03*
X106847000Y-50480000D03*
X251797000Y-79938000D03*
%TO.N,COL6*%
X183328000Y-103649000D03*
X273155000Y-103650000D03*
X135698000Y-106401000D03*
X162898000Y-41013900D03*
X179983000Y-105131000D03*
%TO.N,COL7*%
X73182700Y-106146000D03*
X201189000Y-47400900D03*
X70205800Y-77173000D03*
X169570000Y-48195400D03*
X146918000Y-50478200D03*
X221674000Y-104667000D03*
%TD*%
D14*
%TO.N,ROW0*%
X247662400Y-83284100D02*
X245496300Y-81118000D01*
X130651700Y-33500000D02*
X130651700Y-33787900D01*
X245496300Y-81118000D02*
X184573600Y-81118000D01*
X130651700Y-33787900D02*
X134701500Y-37837700D01*
X140309500Y-83512600D02*
X140093200Y-83728900D01*
X129500000Y-33500000D02*
X130651700Y-33500000D01*
X98124300Y-83776000D02*
X98295000Y-83605300D01*
X180939000Y-83512600D02*
X140309500Y-83512600D01*
X134701500Y-37837700D02*
X140075200Y-37837700D01*
X63431300Y-83776000D02*
X98124300Y-83776000D01*
X125225200Y-83728900D02*
X124910000Y-83413700D01*
X140093200Y-83728900D02*
X125225200Y-83728900D01*
%TO.N,Net-(D5-K)*%
X100692300Y-93482200D02*
X100462500Y-93712000D01*
X94327600Y-89659100D02*
X89544700Y-89659100D01*
X89544700Y-89659100D02*
X89483800Y-89720000D01*
X97819500Y-93712000D02*
X95868800Y-91761300D01*
X95868800Y-91200300D02*
X94327600Y-89659100D01*
X100462500Y-93712000D02*
X97819500Y-93712000D01*
X95868800Y-91761300D02*
X95868800Y-91200300D01*
%TO.N,ROW1*%
X164183400Y-37437500D02*
X163975000Y-37229100D01*
X135769100Y-37229100D02*
X132040000Y-33500000D01*
X163975000Y-37229100D02*
X135769100Y-37229100D01*
%TO.N,Net-(D9-K)*%
X146633800Y-89720000D02*
X146705100Y-89648700D01*
X157654600Y-89648700D02*
X158086800Y-90080900D01*
X146705100Y-89648700D02*
X157654600Y-89648700D01*
%TO.N,ROW2*%
X171228900Y-64387300D02*
X172269000Y-65427400D01*
X134140000Y-66110200D02*
X134146000Y-66104200D01*
X135862900Y-64387300D02*
X171228900Y-64387300D01*
X228587400Y-75814800D02*
X176559200Y-75814800D01*
X134146000Y-66104200D02*
X135862900Y-64387300D01*
X118708900Y-66110200D02*
X134140000Y-66110200D01*
X176559200Y-75814800D02*
X172591900Y-71847500D01*
X229332100Y-75070100D02*
X228587400Y-75814800D01*
X86434000Y-103817200D02*
X120959400Y-103817200D01*
X120959400Y-103817200D02*
X122130000Y-104987800D01*
%TO.N,ROW3*%
X147175800Y-125931400D02*
X146040400Y-127066800D01*
X143042600Y-57246900D02*
X140549400Y-57246900D01*
X142889100Y-127066800D02*
X146040400Y-127066800D01*
X143099100Y-57303400D02*
X143042600Y-57246900D01*
X96025500Y-123816400D02*
X139638700Y-123816400D01*
X139638700Y-123816400D02*
X142889100Y-127066800D01*
X211459600Y-125931400D02*
X147175800Y-125931400D01*
%TO.N,Net-(D27-K)*%
X141883000Y-70658300D02*
X153878500Y-70658300D01*
X153878500Y-70658300D02*
X154347100Y-71126900D01*
X141871300Y-70670000D02*
X141883000Y-70658300D01*
%TO.N,ROW4*%
X216608300Y-35824400D02*
X164067900Y-35824400D01*
X153156500Y-47652000D02*
X152495600Y-48312900D01*
X220380400Y-39596500D02*
X216608300Y-35824400D01*
X152495600Y-48312900D02*
X143066800Y-48312900D01*
%TO.N,Net-(D40-K)*%
X142999300Y-51552700D02*
X132413600Y-51552700D01*
X143241900Y-51795300D02*
X142999300Y-51552700D01*
X132413600Y-51552700D02*
X132346300Y-51620000D01*
%TO.N,ROW5*%
X145885700Y-39753900D02*
X147021300Y-38618300D01*
X147021300Y-38618300D02*
X170034500Y-38618300D01*
X170034500Y-38618300D02*
X171012700Y-39596500D01*
X202538800Y-44546200D02*
X238222000Y-44546200D01*
%TO.N,ROW6*%
X269602300Y-32348300D02*
X273905200Y-36651200D01*
X34372900Y-32348300D02*
X147280000Y-32348300D01*
X147280000Y-33500000D02*
X147280000Y-32348300D01*
X147280000Y-32348300D02*
X269602300Y-32348300D01*
X30070000Y-36651200D02*
X34372900Y-32348300D01*
%TO.N,COL0*%
X214896300Y-49080000D02*
X214896000Y-49080000D01*
X146270000Y-41550100D02*
X145720000Y-41000000D01*
X152984000Y-87179900D02*
X152984000Y-87180000D01*
X214896000Y-49080000D02*
X214896000Y-49079900D01*
X152396000Y-50201400D02*
X148800000Y-50201400D01*
X148800000Y-50201400D02*
X147721000Y-51280000D01*
X243471300Y-68130000D02*
X243471000Y-68130000D01*
X151543000Y-85739000D02*
X152264000Y-86459500D01*
X145720000Y-41000000D02*
X144825000Y-41894800D01*
X214896000Y-49079900D02*
X198325000Y-49079900D01*
X101744000Y-85739000D02*
X151543000Y-85739000D01*
X152984000Y-87179900D02*
X152983900Y-87179900D01*
X152984000Y-87179900D02*
X152984000Y-87180000D01*
X243471000Y-68130000D02*
X224421300Y-68130000D01*
X152720000Y-50524600D02*
X152396000Y-50201400D01*
X152984000Y-87179800D02*
X152984000Y-87179900D01*
X260140000Y-87180000D02*
X260140000Y-84798800D01*
X152264000Y-86459500D02*
X152984000Y-87179800D01*
X260140000Y-84798800D02*
X243471000Y-68130000D01*
X214896000Y-58605000D02*
X214896000Y-49079900D01*
X146853000Y-41550100D02*
X146270000Y-41550100D01*
X176796300Y-49080000D02*
X176796000Y-49080000D01*
X196896000Y-47651000D02*
X178225000Y-47651000D01*
X144825000Y-41894800D02*
X144450000Y-41894800D01*
X178225000Y-47651000D02*
X176796000Y-49080000D01*
X152984000Y-87180000D02*
X152264000Y-86459500D01*
X198325000Y-49079900D02*
X196896000Y-47651000D01*
X176796000Y-49080000D02*
X170450000Y-49080000D01*
X224421000Y-68130000D02*
X214896000Y-58605000D01*
X147721000Y-51280000D02*
X147319000Y-51280000D01*
X170450000Y-49080000D02*
X169006000Y-50524600D01*
X152983900Y-87179900D02*
X152983800Y-87180000D01*
X169006000Y-50524600D02*
X152720000Y-50524600D01*
X224421300Y-68130000D02*
X224421000Y-68130000D01*
X101617000Y-85866000D02*
X101744000Y-85739000D01*
%TO.N,COL1*%
X271071000Y-48104500D02*
X272046000Y-49080000D01*
X43446200Y-49080000D02*
X43446200Y-50445000D01*
X146072000Y-44695400D02*
X147576000Y-43191100D01*
X272046300Y-49080000D02*
X272046000Y-49080000D01*
X47830900Y-44695400D02*
X146072000Y-44695400D01*
X153624000Y-65053100D02*
X153624000Y-66323300D01*
X150028000Y-66323300D02*
X148221000Y-68129900D01*
X186321000Y-68129700D02*
X195846000Y-58605000D01*
X195846300Y-49762000D02*
X195846300Y-49080000D01*
X195846000Y-50445000D02*
X195846000Y-49762300D01*
X195846000Y-58605000D02*
X195846000Y-50445000D01*
X195846000Y-49762300D02*
X195846300Y-49762000D01*
X184515000Y-66323300D02*
X153624000Y-66323300D01*
X43446300Y-49080000D02*
X47830900Y-44695400D01*
X195846000Y-50445000D02*
X195846000Y-49762300D01*
X43446200Y-58605000D02*
X52971200Y-68130000D01*
X186321000Y-68129700D02*
X184515000Y-66323300D01*
X186321200Y-68129900D02*
X186321300Y-68130000D01*
X195236000Y-45178000D02*
X268144000Y-45178000D01*
X43446200Y-50445000D02*
X43446200Y-58605000D01*
X148221000Y-68129900D02*
X148221000Y-68130000D01*
X52971300Y-68130000D02*
X52971200Y-68130000D01*
X271070000Y-48104500D02*
X271071000Y-48104500D01*
X52971200Y-82417500D02*
X57733800Y-87180000D01*
X43446300Y-50444900D02*
X43446300Y-49080000D01*
X153624000Y-66323300D02*
X150028000Y-66323300D01*
X186321000Y-68129700D02*
X186321000Y-68129900D01*
X186321000Y-68129900D02*
X186321200Y-68129900D01*
X268144000Y-45178000D02*
X271070000Y-48104500D01*
X43446200Y-50445000D02*
X43446300Y-50444900D01*
X186321000Y-68129800D02*
X186321000Y-68129900D01*
X52971200Y-68130000D02*
X52971200Y-82417500D01*
X148221300Y-68130000D02*
X148221000Y-68130000D01*
%TO.N,COL2*%
X151230000Y-41000000D02*
X152783000Y-39447300D01*
X62496300Y-49080000D02*
X64774200Y-46802100D01*
X62496200Y-50445000D02*
X62496200Y-101468000D01*
X62496200Y-101468000D02*
X67258800Y-106230000D01*
X167392000Y-41623300D02*
X167392000Y-45113300D01*
X152783000Y-39447300D02*
X158045000Y-39447300D01*
X158045000Y-39447300D02*
X158466000Y-39025700D01*
X167392000Y-45113300D02*
X168444000Y-46164900D01*
X146701000Y-45098600D02*
X150616000Y-41184200D01*
X24396300Y-49080000D02*
X29935500Y-43540800D01*
X149757500Y-97759000D02*
X151929900Y-97759000D01*
X166228000Y-40459500D02*
X167392000Y-41623300D01*
X172033800Y-87180000D02*
X172034000Y-87180000D01*
X62496200Y-50445000D02*
X62496300Y-50444900D01*
X158466000Y-39025700D02*
X164380000Y-39025700D01*
X151929900Y-97759000D02*
X151930000Y-97759000D01*
X233396000Y-46176200D02*
X168455000Y-46176200D01*
X143459000Y-106230000D02*
X151930000Y-97759000D01*
X150616000Y-41184200D02*
X150800000Y-41000000D01*
X150616000Y-41184300D02*
X150616000Y-41184200D01*
X109700000Y-46802100D02*
X111403000Y-45098600D01*
X29935500Y-43540800D02*
X61275100Y-43540800D01*
X149014000Y-98502500D02*
X149757500Y-97759000D01*
X150800000Y-41000000D02*
X151230000Y-41000000D01*
X165814000Y-40459500D02*
X166228000Y-40459500D01*
X62496200Y-49080000D02*
X62496200Y-50445000D01*
X62496300Y-50444900D02*
X62496300Y-49080000D01*
X162509000Y-87180000D02*
X172033800Y-87180000D01*
X151930000Y-97759000D02*
X162509000Y-87180000D01*
X168455000Y-46176200D02*
X168444000Y-46164900D01*
X111403000Y-45098600D02*
X146701000Y-45098600D01*
X64774200Y-46802100D02*
X109700000Y-46802100D01*
X151377000Y-41945500D02*
X150616000Y-41184300D01*
X164380000Y-39025700D02*
X165814000Y-40459500D01*
%TO.N,COL3*%
X101342000Y-85254400D02*
X179549000Y-85254400D01*
X229184000Y-87179900D02*
X227724000Y-85720100D01*
X99071700Y-88638300D02*
X99071700Y-87524600D01*
X223356000Y-107213000D02*
X230474000Y-107213000D01*
X229184000Y-87180000D02*
X229184000Y-87179900D01*
X81546300Y-49080000D02*
X82099800Y-49080000D01*
X128605000Y-46156300D02*
X128276000Y-46156300D01*
X191084000Y-87180000D02*
X192544000Y-85720100D01*
X138204000Y-34679700D02*
X138102000Y-34577600D01*
X191083800Y-87180000D02*
X191084000Y-87180000D01*
X179549000Y-85254400D02*
X180161000Y-85866000D01*
X109949000Y-47403800D02*
X110610000Y-46742500D01*
X82099800Y-49080000D02*
X82099800Y-57259800D01*
X157440000Y-33500000D02*
X156260000Y-34679700D01*
X156260000Y-34679700D02*
X138204000Y-34679700D01*
X91860800Y-88638300D02*
X99071700Y-88638300D01*
X101735000Y-93004000D02*
X99071700Y-90340500D01*
X110610000Y-46742500D02*
X129191000Y-46742500D01*
X129191000Y-46742500D02*
X128605000Y-46156300D01*
X192544000Y-85720100D02*
X219670000Y-85720100D01*
X90402500Y-87180000D02*
X91860800Y-88638300D01*
X229183800Y-87180000D02*
X229184000Y-87180000D01*
X99071700Y-90340500D02*
X99071700Y-88638300D01*
X99071700Y-87524600D02*
X101342000Y-85254400D01*
X83776000Y-47403800D02*
X109949000Y-47403800D01*
X76783800Y-87180000D02*
X90402500Y-87180000D01*
X82099800Y-49080000D02*
X83776000Y-47403800D01*
X227724000Y-85720100D02*
X219670000Y-85720100D01*
%TO.N,COL4*%
X145734000Y-68130000D02*
X129171000Y-68130000D01*
X181988000Y-66725000D02*
X152957000Y-66725000D01*
X129171000Y-68130000D02*
X119646000Y-68130000D01*
X129171300Y-68130000D02*
X129171000Y-68130000D01*
X152957000Y-66725000D02*
X150102000Y-69579500D01*
X100596000Y-82417500D02*
X100596000Y-49080000D01*
X108841000Y-49080000D02*
X110376000Y-47544400D01*
X110376000Y-47544400D02*
X130580000Y-47544400D01*
X156700000Y-40180500D02*
X158186000Y-40180500D01*
X147183000Y-69579500D02*
X145734000Y-68130000D01*
X100596300Y-49080000D02*
X108841000Y-49080000D01*
X210134000Y-96705000D02*
X210134000Y-95243800D01*
X130580000Y-47544400D02*
X130980000Y-47144200D01*
X210134000Y-95243800D02*
X210134000Y-87180000D01*
X100601000Y-49085000D02*
X100601000Y-49085200D01*
X119646000Y-68130000D02*
X100601000Y-49085200D01*
X200609000Y-106230000D02*
X210134000Y-96705000D01*
X186545000Y-71281400D02*
X181988000Y-66725000D01*
X149736000Y-47144200D02*
X155880000Y-41000000D01*
X239889000Y-97722000D02*
X212612000Y-97722000D01*
X95833800Y-87180000D02*
X100596000Y-82417500D01*
X212612000Y-97722000D02*
X210134000Y-95243800D01*
X130980000Y-47144200D02*
X149736000Y-47144200D01*
X210134000Y-87180000D02*
X193679000Y-87180000D01*
X100596000Y-49080000D02*
X100601000Y-49085200D01*
X100596000Y-49080000D02*
X100596300Y-49080000D01*
X155880000Y-41000000D02*
X156700000Y-40180500D01*
X210133800Y-87180000D02*
X210134000Y-87180000D01*
X193679000Y-87180000D02*
X193125000Y-86625400D01*
X150102000Y-69579500D02*
X147183000Y-69579500D01*
X100596000Y-49080000D02*
X100601000Y-49085000D01*
X200608800Y-106230000D02*
X200609000Y-106230000D01*
%TO.N,COL5*%
X163998000Y-39427400D02*
X165632000Y-41061200D01*
X167271000Y-68130100D02*
X168636000Y-69494700D01*
X184038000Y-79938000D02*
X181559000Y-82417500D01*
X111528000Y-50480000D02*
X112928000Y-49080000D01*
X200609000Y-125280000D02*
X214896000Y-125280000D01*
X214896300Y-125280000D02*
X214896000Y-125280000D01*
X168636000Y-69495000D02*
X167271000Y-68130000D01*
X167271000Y-68130000D02*
X167271000Y-68130100D01*
X181559000Y-82417500D02*
X168636000Y-69495000D01*
X168636000Y-69494700D02*
X168636000Y-69495000D01*
X119646300Y-49080000D02*
X129812000Y-49080000D01*
X131346000Y-47545900D02*
X151874000Y-47545900D01*
X167271300Y-68130000D02*
X167271000Y-68130000D01*
X112928000Y-49080000D02*
X119646300Y-49080000D01*
X151874000Y-47545900D02*
X158420000Y-41000000D01*
X183499000Y-108170000D02*
X181559000Y-106230000D01*
X129812000Y-49080000D02*
X131346000Y-47545900D01*
X181558800Y-106230000D02*
X181559000Y-106230000D01*
X106847000Y-50480000D02*
X111528000Y-50480000D01*
X181559000Y-106230000D02*
X183499000Y-108170000D01*
X159993000Y-39427400D02*
X163998000Y-39427400D01*
X158420000Y-41000000D02*
X159993000Y-39427400D01*
X181559000Y-82417500D02*
X181559000Y-106230000D01*
X183499000Y-108170000D02*
X200609000Y-125280000D01*
X251797000Y-79938000D02*
X184038000Y-79938000D01*
X165632000Y-41061200D02*
X165979000Y-41061200D01*
%TO.N,COL6*%
X203419000Y-107680000D02*
X196869000Y-107680000D01*
X114884000Y-87862500D02*
X114883800Y-87862300D01*
X192839000Y-103649000D02*
X183328000Y-103649000D01*
X141090000Y-106401000D02*
X135698000Y-106401000D01*
X124409000Y-106229500D02*
X124408800Y-106229700D01*
X145978000Y-106230000D02*
X144573000Y-107635000D01*
X160960000Y-41000000D02*
X160974000Y-41013900D01*
X138696000Y-49080000D02*
X138696300Y-49080000D01*
X179983000Y-105131000D02*
X163608000Y-105131000D01*
X221840000Y-103650000D02*
X219659000Y-105831000D01*
X152880000Y-49080000D02*
X160960000Y-41000000D01*
X114883800Y-87862300D02*
X114883800Y-87180000D01*
X162508800Y-106230000D02*
X145978000Y-106230000D01*
X219659000Y-105831000D02*
X219659000Y-106230000D01*
X114884000Y-88545000D02*
X114884000Y-87862500D01*
X124408800Y-106229700D02*
X124408800Y-106230000D01*
X114884000Y-87862500D02*
X114884000Y-88545000D01*
X219658800Y-106230000D02*
X204868000Y-106230000D01*
X142324000Y-107635000D02*
X141090000Y-106401000D01*
X163608000Y-105131000D02*
X162509000Y-106230000D01*
X204868000Y-106230000D02*
X203419000Y-107680000D01*
X121834000Y-103655000D02*
X123122000Y-104942000D01*
X124409000Y-106229000D02*
X123766000Y-105586000D01*
X160974000Y-41013900D02*
X162898000Y-41013900D01*
X114884000Y-88545000D02*
X114884000Y-96705000D01*
X162509000Y-106230000D02*
X162508800Y-106230000D01*
X219659000Y-106230000D02*
X219658800Y-106230000D01*
X138696300Y-49080000D02*
X152880000Y-49080000D01*
X123122000Y-104942000D02*
X123766000Y-105586000D01*
X196869000Y-107680000D02*
X192839000Y-103649000D01*
X123766000Y-105586000D02*
X124409000Y-106230000D01*
X124409000Y-106230000D02*
X124409000Y-106229500D01*
X124409000Y-106229500D02*
X124409000Y-106229000D01*
X273155000Y-103650000D02*
X221840000Y-103650000D01*
X144573000Y-107635000D02*
X142324000Y-107635000D01*
X114884000Y-96705000D02*
X121834000Y-103655000D01*
%TO.N,COL7*%
X73182700Y-106146000D02*
X71676900Y-107651000D01*
X74514300Y-104814000D02*
X73182700Y-106146000D01*
X264902500Y-106230000D02*
X264902000Y-106230000D01*
X201023000Y-47234600D02*
X165416000Y-47234600D01*
X221674000Y-104667000D02*
X223237000Y-106230000D01*
X72021300Y-68130000D02*
X70945500Y-68130000D01*
X169570000Y-48195400D02*
X166377000Y-48195400D01*
X133934000Y-113374000D02*
X145840000Y-125280000D01*
X223237000Y-106230000D02*
X238708800Y-106230000D01*
X157027000Y-49799700D02*
X147596000Y-49799700D01*
X133934000Y-87862400D02*
X133934000Y-87521100D01*
X133934000Y-108770000D02*
X133934000Y-113374000D01*
X157746000Y-49080000D02*
X157027000Y-49799700D01*
X147596000Y-49799700D02*
X146918000Y-50477700D01*
X124409000Y-108770000D02*
X120453000Y-104814000D01*
X133934000Y-87521100D02*
X133933800Y-87520900D01*
X133934000Y-87862400D02*
X133934000Y-87521100D01*
X120453000Y-104814000D02*
X74514300Y-104814000D01*
X146918000Y-50477700D02*
X146918000Y-50478200D01*
X70945500Y-68130000D02*
X66923400Y-72152100D01*
X66923400Y-72152100D02*
X66923400Y-74319800D01*
X163500000Y-47234600D02*
X161655000Y-49080000D01*
X64144600Y-107651000D02*
X62723300Y-106230000D01*
X133933800Y-87520900D02*
X133933800Y-87180000D01*
X165416000Y-47234600D02*
X163500000Y-47234600D01*
X69776600Y-77173000D02*
X70205800Y-77173000D01*
X201189000Y-47400900D02*
X201023000Y-47234600D01*
X166377000Y-48195400D02*
X165416000Y-47234600D01*
X66923400Y-74319800D02*
X69776600Y-77173000D01*
X62723300Y-106230000D02*
X41065000Y-106230000D01*
X238708800Y-106230000D02*
X264902000Y-106230000D01*
X133934000Y-108770000D02*
X133934000Y-87862400D01*
X71676900Y-107651000D02*
X64144600Y-107651000D01*
X133934000Y-108770000D02*
X124409000Y-108770000D01*
X157746300Y-49080000D02*
X157746000Y-49080000D01*
X161655000Y-49080000D02*
X157746300Y-49080000D01*
%TD*%
M02*
