%TF.GenerationSoftware,KiCad,Pcbnew,9.0.1*%
%TF.CreationDate,2025-06-03T04:36:32-05:00*%
%TF.ProjectId,coco2Keyboard,636f636f-324b-4657-9962-6f6172642e6b,rev?*%
%TF.SameCoordinates,Original*%
%TF.FileFunction,Paste,Bot*%
%TF.FilePolarity,Positive*%
%FSLAX46Y46*%
G04 Gerber Fmt 4.6, Leading zero omitted, Abs format (unit mm)*
G04 Created by KiCad (PCBNEW 9.0.1) date 2025-06-03 04:36:32*
%MOMM*%
%LPD*%
G01*
G04 APERTURE LIST*
G04 Aperture macros list*
%AMRoundRect*
0 Rectangle with rounded corners*
0 $1 Rounding radius*
0 $2 $3 $4 $5 $6 $7 $8 $9 X,Y pos of 4 corners*
0 Add a 4 corners polygon primitive as box body*
4,1,4,$2,$3,$4,$5,$6,$7,$8,$9,$2,$3,0*
0 Add four circle primitives for the rounded corners*
1,1,$1+$1,$2,$3*
1,1,$1+$1,$4,$5*
1,1,$1+$1,$6,$7*
1,1,$1+$1,$8,$9*
0 Add four rect primitives between the rounded corners*
20,1,$1+$1,$2,$3,$4,$5,0*
20,1,$1+$1,$4,$5,$6,$7,0*
20,1,$1+$1,$6,$7,$8,$9,0*
20,1,$1+$1,$8,$9,$2,$3,0*%
G04 Aperture macros list end*
%ADD10RoundRect,0.225000X0.375000X-0.225000X0.375000X0.225000X-0.375000X0.225000X-0.375000X-0.225000X0*%
G04 APERTURE END LIST*
D10*
%TO.C,D30*%
X258076300Y-129960000D03*
X258076300Y-126660000D03*
%TD*%
%TO.C,D31*%
X219976300Y-129960000D03*
X219976300Y-126660000D03*
%TD*%
%TO.C,D41*%
X162826300Y-53760000D03*
X162826300Y-50460000D03*
%TD*%
%TO.C,D34*%
X219976300Y-53760000D03*
X219976300Y-50460000D03*
%TD*%
%TO.C,D6*%
X96151300Y-72810000D03*
X96151300Y-69510000D03*
%TD*%
%TO.C,D12*%
X196163800Y-91860000D03*
X196163800Y-88560000D03*
%TD*%
%TO.C,D43*%
X200926300Y-53760000D03*
X200926300Y-50460000D03*
%TD*%
%TO.C,D32*%
X277126300Y-129960000D03*
X277126300Y-126660000D03*
%TD*%
%TO.C,D45*%
X234263800Y-91860000D03*
X234263800Y-88560000D03*
%TD*%
%TO.C,D46*%
X205688800Y-110910000D03*
X205688800Y-107610000D03*
%TD*%
%TO.C,D10*%
X191401300Y-72810000D03*
X191401300Y-69510000D03*
%TD*%
%TO.C,D17*%
X229501300Y-72810000D03*
X229501300Y-69510000D03*
%TD*%
%TO.C,D2*%
X62813800Y-91860000D03*
X62813800Y-88560000D03*
%TD*%
%TO.C,D21*%
X134251300Y-72810000D03*
X134251300Y-69510000D03*
%TD*%
%TO.C,D4*%
X110438800Y-110910000D03*
X110438800Y-107610000D03*
%TD*%
%TO.C,D13*%
X215213800Y-91860000D03*
X215213800Y-88560000D03*
%TD*%
%TO.C,D3*%
X148538800Y-110910000D03*
X148538800Y-107610000D03*
%TD*%
%TO.C,D19*%
X115201300Y-72810000D03*
X115201300Y-69510000D03*
%TD*%
%TO.C,D11*%
X177113800Y-91860000D03*
X177113800Y-88560000D03*
%TD*%
%TO.C,D22*%
X172351300Y-72810000D03*
X172351300Y-69510000D03*
%TD*%
%TO.C,D16*%
X210451300Y-72810000D03*
X210451300Y-69510000D03*
%TD*%
%TO.C,D42*%
X181876300Y-53760000D03*
X181876300Y-50460000D03*
%TD*%
%TO.C,D53*%
X46145000Y-110910000D03*
X46145000Y-107610000D03*
%TD*%
%TO.C,D39*%
X124726300Y-53760000D03*
X124726300Y-50460000D03*
%TD*%
%TO.C,D47*%
X258076300Y-53760000D03*
X258076300Y-50460000D03*
%TD*%
%TO.C,D25*%
X91388800Y-110910000D03*
X91388800Y-107610000D03*
%TD*%
%TO.C,D29*%
X239026300Y-129960000D03*
X239026300Y-126660000D03*
%TD*%
%TO.C,D1*%
X248551300Y-72810000D03*
X248551300Y-69510000D03*
%TD*%
%TO.C,D23*%
X129488800Y-110910000D03*
X129488800Y-107610000D03*
%TD*%
%TO.C,D33*%
X150920000Y-129960000D03*
X150920000Y-126660000D03*
%TD*%
%TO.C,D8*%
X139013800Y-91860000D03*
X139013800Y-88560000D03*
%TD*%
%TO.C,D35*%
X48526300Y-53760000D03*
X48526300Y-50460000D03*
%TD*%
%TO.C,D48*%
X224738800Y-110910000D03*
X224738800Y-107610000D03*
%TD*%
%TO.C,D9*%
X158063800Y-91860000D03*
X158063800Y-88560000D03*
%TD*%
%TO.C,D38*%
X105676300Y-53760000D03*
X105676300Y-50460000D03*
%TD*%
%TO.C,D52*%
X29476300Y-53760000D03*
X29476300Y-50460000D03*
%TD*%
%TO.C,D20*%
X81863800Y-91860000D03*
X81863800Y-88560000D03*
%TD*%
%TO.C,D28*%
X72338800Y-110910000D03*
X72338800Y-107610000D03*
%TD*%
%TO.C,D40*%
X143776300Y-53760000D03*
X143776300Y-50460000D03*
%TD*%
%TO.C,D27*%
X153301300Y-72810000D03*
X153301300Y-69510000D03*
%TD*%
%TO.C,D50*%
X265220000Y-91860000D03*
X265220000Y-88560000D03*
%TD*%
%TO.C,D51*%
X277126300Y-53760000D03*
X277126300Y-50460000D03*
%TD*%
%TO.C,D7*%
X119963800Y-91860000D03*
X119963800Y-88560000D03*
%TD*%
%TO.C,D15*%
X167588800Y-110910000D03*
X167588800Y-107610000D03*
%TD*%
%TO.C,D14*%
X186638800Y-110910000D03*
X186638800Y-107610000D03*
%TD*%
%TO.C,D24*%
X77101300Y-72810000D03*
X77101300Y-69510000D03*
%TD*%
%TO.C,D5*%
X100913800Y-91860000D03*
X100913800Y-88560000D03*
%TD*%
%TO.C,D36*%
X67576300Y-53760000D03*
X67576300Y-50460000D03*
%TD*%
%TO.C,D49*%
X243788800Y-110910000D03*
X243788800Y-107610000D03*
%TD*%
%TO.C,D54*%
X269982500Y-110910000D03*
X269982500Y-107610000D03*
%TD*%
%TO.C,D44*%
X239026300Y-53760000D03*
X239026300Y-50460000D03*
%TD*%
%TO.C,D18*%
X58051300Y-72810000D03*
X58051300Y-69510000D03*
%TD*%
%TO.C,D37*%
X86626300Y-53760000D03*
X86626300Y-50460000D03*
%TD*%
M02*
