M48
; DRILL file {KiCad 9.0.1} date 2025-06-03T04:36:36-0500
; FORMAT={-:-/ absolute / metric / decimal}
; #@! TF.CreationDate,2025-06-03T04:36:36-05:00
; #@! TF.GenerationSoftware,Kicad,Pcbnew,9.0.1
; #@! TF.FileFunction,Plated,1,2,PTH
FMAT,2
METRIC
; #@! TA.AperFunction,Plated,PTH,ViaDrill
T1C0.300
; #@! TA.AperFunction,Plated,PTH,ComponentDrill
T2C1.000
; #@! TA.AperFunction,Plated,PTH,ComponentDrill
T3C1.500
%
G90
G05
T1
X30.07Y-36.651
X61.275Y-43.541
X63.431Y-83.776
X70.206Y-77.173
X73.183Y-106.146
X82.1Y-57.26
X86.434Y-103.817
X96.025Y-123.816
X98.295Y-83.605
X100.692Y-93.482
X101.617Y-85.866
X101.735Y-93.004
X106.847Y-50.48
X109.7Y-46.802
X118.709Y-66.11
X122.13Y-104.988
X124.91Y-83.414
X128.276Y-46.156
X134.146Y-66.104
X135.698Y-106.401
X138.102Y-34.578
X140.075Y-37.838
X140.093Y-83.729
X140.549Y-57.247
X143.067Y-48.313
X143.099Y-57.303
X143.242Y-51.795
X144.45Y-41.895
X145.886Y-39.754
X146.04Y-127.067
X146.853Y-41.55
X146.918Y-50.478
X147.319Y-51.28
X147.576Y-43.191
X149.014Y-98.502
X151.377Y-41.945
X153.156Y-47.652
X153.624Y-65.053
X154.347Y-71.127
X158.087Y-90.081
X158.186Y-40.18
X162.898Y-41.014
X164.068Y-35.824
X164.183Y-37.438
X165.979Y-41.061
X168.444Y-46.165
X169.57Y-48.195
X171.013Y-39.596
X172.269Y-65.427
X172.592Y-71.847
X179.983Y-105.131
X180.161Y-85.866
X180.939Y-83.513
X183.328Y-103.649
X184.574Y-81.118
X186.545Y-71.281
X193.125Y-86.625
X195.236Y-45.178
X201.189Y-47.401
X202.539Y-44.546
X211.46Y-125.931
X219.67Y-85.72
X220.38Y-39.596
X221.674Y-104.667
X223.356Y-107.213
X229.332Y-75.07
X230.474Y-107.213
X233.396Y-46.176
X238.222Y-44.546
X239.889Y-97.722
X247.662Y-83.284
X251.797Y-79.938
X273.155Y-103.65
X273.905Y-36.651
T2
X129.5Y-33.5
X132.04Y-33.5
X134.58Y-33.5
X137.12Y-33.5
X139.66Y-33.5
X142.2Y-33.5
X144.74Y-33.5
X147.28Y-33.5
X149.82Y-33.5
X152.36Y-33.5
X154.9Y-33.5
X157.44Y-33.5
X159.98Y-33.5
X162.52Y-33.5
X165.06Y-33.5
X167.6Y-33.5
T3
X18.046Y-51.62
X24.396Y-49.08
X34.715Y-108.77
X37.096Y-51.62
X41.065Y-106.23
X43.446Y-49.08
X46.621Y-70.67
X51.384Y-89.72
X52.971Y-68.13
X56.146Y-51.62
X57.734Y-87.18
X60.909Y-108.77
X62.496Y-49.08
X65.671Y-70.67
X67.259Y-106.23
X70.434Y-89.72
X72.021Y-68.13
X75.196Y-51.62
X76.784Y-87.18
X79.959Y-108.77
X81.546Y-49.08
X84.721Y-70.67
X86.309Y-106.23
X89.484Y-89.72
X91.071Y-68.13
X94.246Y-51.62
X95.834Y-87.18
X99.009Y-108.77
X100.596Y-49.08
X103.771Y-70.67
X105.359Y-106.23
X108.534Y-89.72
X110.121Y-68.13
X113.296Y-51.62
X114.884Y-87.18
X118.059Y-108.77
X119.646Y-49.08
X122.821Y-70.67
X124.409Y-106.23
X127.584Y-89.72
X129.171Y-68.13
X132.346Y-51.62
X133.934Y-87.18
X137.109Y-108.77
X138.696Y-49.08
X139.49Y-127.82
X141.871Y-70.67
X143.459Y-106.23
X145.84Y-125.28
X146.634Y-89.72
X148.221Y-68.13
X151.396Y-51.62
X152.984Y-87.18
X156.159Y-108.77
X157.746Y-49.08
X160.921Y-70.67
X162.509Y-106.23
X165.684Y-89.72
X167.271Y-68.13
X170.446Y-51.62
X172.034Y-87.18
X175.209Y-108.77
X176.796Y-49.08
X179.971Y-70.67
X181.559Y-106.23
X184.734Y-89.72
X186.321Y-68.13
X189.496Y-51.62
X191.084Y-87.18
X194.259Y-108.77
X195.846Y-49.08
X199.021Y-70.67
X200.609Y-106.23
X203.784Y-89.72
X205.371Y-68.13
X208.546Y-51.62
X208.546Y-127.82
X210.134Y-87.18
X213.309Y-108.77
X214.896Y-49.08
X214.896Y-125.28
X218.071Y-70.67
X219.659Y-106.23
X222.834Y-89.72
X224.421Y-68.13
X227.596Y-51.62
X227.596Y-127.82
X229.184Y-87.18
X232.359Y-108.77
X233.946Y-49.08
X233.946Y-125.28
X237.121Y-70.67
X238.709Y-106.23
X243.471Y-68.13
X246.646Y-51.62
X246.646Y-127.82
X252.996Y-49.08
X252.996Y-125.28
X253.79Y-89.72
X258.553Y-108.77
X260.14Y-87.18
X264.902Y-106.23
X265.696Y-51.62
X265.696Y-127.82
X272.046Y-49.08
X272.046Y-125.28
M30
